<?xml version="1.0" standalone="no"?>
<!DOCTYPE svg PUBLIC "-//W3C//DTD SVG 20010904//EN"
 "http://www.w3.org/TR/2001/REC-SVG-20010904/DTD/svg10.dtd">
<svg version="1.0" xmlns="http://www.w3.org/2000/svg"
 width="600.000000pt" height="384.000000pt" viewBox="0 0 600.000000 384.000000"
 preserveAspectRatio="xMidYMid meet">

<g transform="translate(0.000000,384.000000) scale(0.100000,-0.100000)"
fill="#000000" stroke="none">
<path d="M4143 3684 c-4 -12 12 -35 55 -76 34 -33 62 -64 62 -69 0 -4 12 -15
28 -23 15 -8 22 -15 16 -16 -13 0 -89 53 -99 69 -3 6 -14 11 -23 11 -9 0 -40
12 -68 27 -43 22 -55 25 -67 14 -21 -17 -11 -38 25 -57 17 -9 46 -31 65 -51
21 -20 41 -32 50 -29 16 7 68 -17 79 -36 5 -7 -4 -5 -20 5 -15 10 -29 17 -30
15 -30 -42 -47 -86 -42 -110 3 -16 0 -33 -8 -40 -26 -25 8 -96 40 -84 10 4 26
-5 43 -23 22 -23 40 -31 101 -40 41 -7 83 -16 92 -21 10 -6 23 -10 29 -10 7 0
49 -25 94 -56 89 -60 119 -65 131 -19 8 32 4 38 -83 98 -123 85 -127 87 -163
87 -50 0 -80 10 -80 26 0 8 12 43 26 79 26 66 27 66 46 46 26 -29 61 -35 96
-17 32 17 42 34 42 72 0 37 -15 60 -50 74 -54 22 -102 -12 -113 -80 -4 -21 -4
-20 -6 7 -1 26 -19 48 -112 137 -109 103 -143 123 -156 90z m-30 -103 c15 -8
27 -18 27 -22 0 -5 -16 1 -35 12 -19 12 -35 23 -35 26 0 2 3 3 8 1 4 -2 19
-10 35 -17z m91 -27 c9 -8 16 -19 16 -23 0 -10 -22 -31 -34 -31 -5 0 -1 6 10
14 18 14 18 16 2 33 -17 16 -19 16 -35 1 -14 -15 -14 -20 -3 -35 13 -17 13
-17 -4 -2 -15 14 -16 21 -7 38 14 25 34 27 55 5z m-14 -24 c0 -5 -4 -10 -10
-10 -5 0 -10 5 -10 10 0 6 5 10 10 10 6 0 10 -4 10 -10z m65 -32 c14 -6 25
-15 25 -20 0 -8 -17 -1 -50 22 -20 13 -7 13 25 -2z m109 -30 c15 -24 -3 -52
-37 -56 -33 -4 -53 28 -37 59 14 25 58 23 74 -3z m-30 -184 c19 -18 21 -55 4
-72 -31 -31 -88 -4 -88 42 0 20 28 46 50 46 10 0 26 -7 34 -16z m186 -74 c8
-14 8 -26 0 -40 -19 -35 -80 -20 -80 20 0 40 61 55 80 20z m-95 0 c7 -11 -9
-11 -45 0 -24 8 -24 8 7 9 17 1 35 -3 38 -9z m221 -127 c-6 -6 -115 70 -116
80 0 5 27 -11 60 -34 33 -23 58 -44 56 -46z"/>
<path d="M4300 3465 c-10 -12 -10 -18 0 -30 26 -32 68 -8 54 30 -4 8 -14 15
-24 15 -10 0 -23 -7 -30 -15z m40 -15 c0 -5 -7 -10 -15 -10 -8 0 -15 5 -15 10
0 6 7 10 15 10 8 0 15 -4 15 -10z"/>
<path d="M4276 3274 c-19 -18 -19 -20 -6 -45 12 -21 40 -25 58 -7 18 18 14 46
-7 58 -25 13 -27 13 -45 -6z m44 -23 c0 -14 -18 -23 -30 -16 -6 4 -8 11 -5 16
8 12 35 12 35 0z"/>
<path d="M4454 3206 c-10 -26 4 -48 28 -44 17 2 23 10 23 28 0 18 -6 26 -23
28 -13 2 -25 -3 -28 -12z m46 -16 c0 -5 -7 -10 -15 -10 -8 0 -15 5 -15 10 0 6
7 10 15 10 8 0 15 -4 15 -10z"/>
<path d="M465 3505 c-52 -51 -16 -138 57 -138 54 0 93 63 72 118 -8 19 -55 45
-84 45 -11 0 -32 -11 -45 -25z"/>
<path d="M1189 3517 c-43 -33 -50 -87 -14 -122 31 -32 86 -34 115 -5 31 31 27
93 -6 119 -30 23 -71 27 -95 8z"/>
<path d="M5209 3500 c-24 -23 -30 -37 -27 -62 4 -44 31 -47 104 -14 31 14 66
26 78 26 18 0 15 6 -21 40 -53 51 -91 53 -134 10z m121 -20 c0 -5 -2 -10 -4
-10 -3 0 -8 5 -11 10 -3 6 -1 10 4 10 6 0 11 -4 11 -10z"/>
<path d="M1815 3495 c-52 -51 -18 -135 54 -135 42 0 81 38 81 80 0 41 -39 80
-80 80 -19 0 -40 -9 -55 -25z"/>
<path d="M5313 3425 c-37 -16 -44 -47 -19 -80 14 -19 15 -19 36 0 27 24 42 59
34 80 -7 18 -10 18 -51 0z"/>
<path d="M5225 3391 l-30 -6 27 -28 c30 -30 64 -37 54 -11 -3 9 -6 24 -6 35 0
10 -3 18 -7 18 -5 -1 -21 -4 -38 -8z"/>
<path d="M362 3364 c-18 -14 -31 -31 -30 -37 4 -16 -22 -77 -33 -77 -18 0 -33
-47 -35 -107 -2 -72 11 -84 20 -20 4 23 11 49 17 57 7 11 8 8 3 -13 -12 -53
-10 -62 17 -65 23 -3 27 3 43 55 10 32 26 72 35 88 l16 30 5 -68 5 -68 95 -2
95 -2 5 70 5 70 22 -45 c11 -25 26 -65 32 -88 10 -34 16 -42 35 -42 32 0 35 6
24 47 -5 19 -7 37 -5 40 3 2 11 -21 18 -51 7 -31 15 -56 19 -56 3 0 5 26 4 58
-3 82 -2 80 -21 100 -31 30 -53 70 -47 85 5 14 -54 67 -75 67 -15 0 -14 -23 1
-38 9 -9 -16 -12 -112 -12 -96 0 -121 3 -112 12 16 16 15 38 0 38 -7 0 -28
-12 -46 -26z m21 -16 c-18 -18 -35 -29 -39 -26 -7 8 45 57 61 58 5 0 -5 -14
-22 -32z m292 2 c16 -16 24 -30 19 -30 -6 0 -23 14 -39 30 -16 17 -24 30 -19
30 6 0 23 -13 39 -30z m-302 -42 c-11 -13 -30 -41 -41 -63 -12 -22 -21 -36
-22 -32 -1 22 62 117 78 117 3 0 -4 -10 -15 -22z m342 -61 c9 -22 11 -36 6
-32 -6 3 -11 11 -11 17 0 5 -14 31 -31 57 -28 41 -28 43 -5 21 14 -14 32 -42
41 -63z m-425 -52 c-6 -15 -13 -25 -17 -22 -3 4 0 21 8 38 16 39 24 24 9 -16z
m476 -23 c-10 -9 -15 2 -21 39 l-5 34 15 -34 c9 -18 14 -36 11 -39z"/>
<path d="M1006 3373 c-13 -45 -36 -157 -36 -177 0 -12 6 -28 12 -34 7 -7 13
-27 14 -44 2 -35 29 -61 57 -54 13 3 21 -4 28 -22 5 -15 18 -33 27 -40 15 -11
17 -32 15 -160 -1 -154 3 -172 42 -172 12 0 27 6 32 13 6 6 15 64 21 127 10
96 9 123 -3 163 -8 26 -12 61 -9 76 4 16 1 32 -5 35 -27 17 -4 23 77 20 48 -2
95 -5 106 -6 23 -4 45 27 30 42 -6 6 -42 15 -80 21 -60 9 -73 15 -100 45 -27
30 -31 41 -27 73 3 21 0 48 -7 61 -10 19 -18 22 -51 17 -21 -3 -39 -2 -39 2 0
11 -48 31 -75 31 -14 0 -26 -7 -29 -17z m168 -56 c22 -16 18 -55 -6 -71 -40
-24 -80 44 -42 71 10 7 21 13 24 13 3 0 14 -6 24 -13z m-94 -17 c13 -9 13 -10
0 -10 -8 0 -22 5 -30 10 -13 9 -13 10 0 10 8 0 22 -5 30 -10z m100 -135 c0 -5
-9 5 -20 23 -26 42 -26 56 0 17 11 -16 20 -34 20 -40z m18 45 c7 -11 9 -20 4
-20 -4 0 -13 9 -20 20 -7 11 -9 20 -4 20 4 0 13 -9 20 -20z m60 -62 c2 -20 -2
-28 -19 -33 -29 -9 -53 15 -44 44 10 34 59 25 63 -11z m117 -18 c27 -7 28 -8
5 -8 -14 -1 -43 3 -65 7 l-40 9 35 0 c19 0 49 -4 65 -8z m-204 -30 c26 -15 25
-64 -2 -84 -23 -16 -47 -12 -66 12 -18 22 -16 39 7 62 23 23 33 24 61 10z m39
-165 c7 -8 10 -25 6 -40 -5 -20 -13 -25 -36 -25 -36 0 -56 30 -40 60 13 24 52
26 70 5z m-39 -170 c-6 -43 -9 -50 -10 -25 -1 41 12 122 16 100 2 -8 -1 -42
-6 -75z"/>
<path d="M1124 3296 c-10 -26 4 -48 28 -44 17 2 23 10 23 28 0 18 -6 26 -23
28 -13 2 -25 -3 -28 -12z m36 -11 c0 -8 -4 -15 -10 -15 -5 0 -10 7 -10 15 0 8
5 15 10 15 6 0 10 -7 10 -15z"/>
<path d="M1203 3154 c-3 -8 -1 -20 5 -26 16 -16 42 -2 42 22 0 24 -38 28 -47
4z m37 -4 c0 -5 -4 -10 -10 -10 -5 0 -10 5 -10 10 0 6 5 10 10 10 6 0 10 -4
10 -10z"/>
<path d="M1114 3076 c-12 -31 0 -51 31 -51 27 0 30 3 30 30 0 25 -4 30 -28 33
-17 2 -29 -2 -33 -12z m46 -21 c0 -8 -7 -15 -15 -15 -8 0 -15 7 -15 15 0 8 7
15 15 15 8 0 15 -7 15 -15z"/>
<path d="M1154 2925 c-9 -23 3 -45 25 -45 25 0 34 14 26 40 -7 23 -43 27 -51
5z m36 -13 c0 -13 -12 -22 -22 -16 -10 6 -1 24 13 24 5 0 9 -4 9 -8z"/>
<path d="M2885 3368 c-11 -7 -40 -13 -65 -14 -70 -3 -164 -23 -179 -39 -12
-12 -12 -17 -1 -30 10 -12 23 -14 57 -9 29 4 43 3 43 -5 0 -6 -11 -11 -25 -11
-36 0 -71 -72 -41 -83 15 -6 16 -88 1 -141 -8 -29 -8 -29 30 -23 47 8 51 12
35 34 -8 10 -3 8 10 -4 13 -12 22 -25 19 -28 -3 -3 -35 -8 -70 -11 -99 -10
-132 -41 -91 -87 16 -19 16 -19 -5 -13 -17 5 -35 -2 -73 -31 -27 -20 -53 -46
-56 -56 -6 -20 21 -57 41 -57 7 0 54 30 105 68 l92 67 -33 6 c-26 4 -14 7 51
14 47 5 94 8 104 7 30 -4 66 25 66 54 0 14 -15 44 -33 67 -53 66 -53 64 12 97
33 16 63 30 65 30 3 0 6 -21 8 -47 l3 -48 80 -42 c83 -44 119 -52 128 -30 8
22 -4 32 -80 71 l-73 36 0 69 c0 53 -4 74 -20 93 -10 14 -17 28 -14 31 3 2 -2
21 -10 41 -16 39 -42 46 -81 24z m-47 -50 c4 -33 -31 -49 -55 -25 -24 24 -8
59 25 55 21 -2 28 -9 30 -30z m67 -12 c11 -8 16 -15 10 -16 -5 0 -23 12 -40
26 -31 26 -6 18 30 -10z m-160 4 c-11 -5 -33 -8 -50 -8 l-30 0 30 8 c17 4 39
8 50 8 l20 1 -20 -9z m141 -38 c-4 -3 -14 2 -24 12 -16 18 -16 18 6 6 13 -6
21 -14 18 -18z m74 -6 c28 -35 -11 -93 -47 -70 -36 22 -23 84 17 84 10 0 23
-7 30 -14z m-99 -13 c13 -15 12 -15 -8 -4 -24 12 -29 21 -14 21 5 0 15 -7 22
-17z m-76 -93 c15 -16 17 -26 9 -48 -17 -50 -94 -39 -94 14 0 49 52 70 85 34z
m26 -112 c11 -21 11 -22 -4 -9 -10 7 -17 17 -17 22 0 15 9 10 21 -13z m73 -50
c15 -24 -3 -52 -37 -56 -33 -4 -53 28 -37 59 14 25 58 23 74 -3z m-95 -32 c-2
-2 -35 -7 -74 -10 -82 -7 -76 1 10 12 57 8 74 7 64 -2z"/>
<path d="M2783 3324 c-3 -8 -1 -20 5 -26 16 -16 42 -2 42 22 0 24 -38 28 -47
4z m37 -4 c0 -5 -4 -10 -10 -10 -5 0 -10 5 -10 10 0 6 5 10 10 10 6 0 10 -4
10 -10z"/>
<path d="M2913 3263 c-19 -7 -16 -50 4 -57 24 -10 51 20 37 41 -12 19 -23 24
-41 16z m27 -28 c0 -8 -4 -15 -9 -15 -13 0 -22 16 -14 24 11 11 23 6 23 -9z"/>
<path d="M2727 3159 c-32 -18 -14 -69 25 -69 19 0 42 35 33 50 -12 19 -40 28
-58 19z m34 -34 c-1 -15 -24 -12 -29 3 -3 9 2 13 12 10 10 -1 17 -7 17 -13z"/>
<path d="M2821 2992 c-12 -22 3 -42 30 -42 23 0 32 15 24 40 -8 25 -41 26 -54
2z m37 -13 c-2 -6 -8 -10 -13 -10 -5 0 -11 4 -13 10 -2 6 4 11 13 11 9 0 15
-5 13 -11z"/>
<path d="M3995 3339 c-173 -58 -367 -173 -461 -271 -36 -38 -35 -38 24 10 140
115 295 200 450 249 45 14 82 29 82 34 0 11 10 14 -95 -22z"/>
<path d="M1700 3335 c-10 -12 -9 -33 5 -103 10 -48 25 -95 34 -105 10 -13 12
-20 4 -25 -35 -22 -6 -92 38 -92 26 0 32 -16 19 -56 -12 -36 -12 -36 -59 -30
-142 21 -139 21 -152 -8 -20 -42 7 -61 104 -76 45 -7 90 -17 100 -22 31 -16
64 15 83 77 10 30 20 55 24 55 23 0 73 -77 105 -160 42 -111 50 -122 83 -118
47 6 48 27 6 143 -34 94 -47 117 -98 172 -32 35 -62 63 -66 63 -4 0 -11 -21
-15 -46 -3 -25 -9 -44 -11 -41 -5 4 4 65 22 153 2 13 14 24 29 28 14 4 25 11
25 16 0 5 22 21 49 35 56 28 64 36 55 59 -8 21 -27 20 -74 -4 -66 -34 -110
-23 -110 27 0 13 -11 35 -24 48 -20 20 -33 23 -94 24 -50 0 -73 -4 -82 -14z
m169 -31 c16 -11 21 -23 17 -37 -3 -12 0 -28 7 -36 10 -12 9 -13 -3 -6 -8 5
-25 8 -38 6 -46 -6 -67 36 -35 71 20 22 23 22 52 2z m152 -85 c-18 -11 -35
-18 -38 -15 -5 5 46 35 62 36 6 0 -5 -9 -24 -21z m-146 -19 c10 -11 16 -20 13
-20 -3 0 -13 9 -23 20 -10 11 -16 20 -13 20 3 0 13 -9 23 -20z m94 1 c13 -24
-8 -55 -34 -50 -28 6 -42 34 -26 53 18 22 48 20 60 -3z m-77 -137 c14 -29 5
-51 -27 -66 -50 -23 -90 53 -44 85 26 19 58 10 71 -19z m-41 -118 c-11 -27
-24 -37 -16 -11 3 8 7 22 10 31 3 9 8 15 11 12 2 -3 0 -17 -5 -32z m-13 -45
c8 -5 12 -21 10 -37 -3 -26 -7 -29 -38 -29 -29 0 -36 4 -38 23 -6 41 31 65 66
43z m-105 -11 c9 0 17 -4 17 -9 0 -4 -24 -4 -52 1 -62 11 -82 24 -23 15 22 -4
48 -7 58 -7z"/>
<path d="M1814 3285 c-7 -17 12 -45 31 -45 19 0 36 25 29 44 -8 20 -53 21 -60
1z m46 -16 c0 -5 -7 -9 -15 -9 -15 0 -20 12 -9 23 8 8 24 -1 24 -14z"/>
<path d="M1914 3195 c-8 -19 3 -35 26 -35 22 0 33 23 17 39 -15 15 -37 14 -43
-4z m36 -15 c0 -5 -4 -10 -10 -10 -5 0 -10 5 -10 10 0 6 5 10 10 10 6 0 10 -4
10 -10z"/>
<path d="M1820 3065 c-18 -22 -8 -50 21 -53 34 -4 54 20 39 47 -12 24 -42 27
-60 6z m45 -15 c3 -6 -1 -13 -10 -16 -19 -8 -30 0 -20 15 8 14 22 14 30 1z"/>
<path d="M1784 2886 c-10 -26 4 -48 28 -44 17 2 23 10 23 28 0 18 -6 26 -23
28 -13 2 -25 -3 -28 -12z m36 -16 c0 -5 -4 -10 -10 -10 -5 0 -10 5 -10 10 0 6
5 10 10 10 6 0 10 -4 10 -10z"/>
<path d="M5055 3338 c-25 -68 -55 -165 -55 -178 0 -9 6 -22 13 -28 6 -7 12
-31 13 -53 0 -46 16 -61 56 -56 32 4 38 -11 38 -99 0 -58 -3 -64 -50 -127 -51
-67 -60 -93 -38 -115 28 -28 55 -13 119 70 71 92 79 130 38 174 -12 13 -18 24
-12 24 16 0 58 -60 71 -100 6 -19 16 -62 22 -95 14 -70 24 -85 55 -85 42 0 50
23 35 103 -8 40 -14 86 -15 104 -1 23 -16 47 -54 88 -50 56 -51 58 -34 77 15
17 15 21 3 28 -32 20 0 9 44 -16 50 -28 57 -35 26 -27 -12 3 -20 0 -20 -7 0
-16 59 -5 79 15 19 19 4 36 -58 71 -25 14 -58 41 -74 61 -31 41 -30 56 2 24
23 -23 37 -26 46 -11 3 6 16 10 28 9 20 -1 20 -2 -3 -8 -15 -4 -26 -15 -28
-28 -2 -16 8 -27 48 -49 28 -15 60 -42 71 -61 17 -28 24 -31 40 -23 19 11 19
11 -2 51 -17 35 -23 79 -9 71 3 -1 52 14 110 34 58 20 131 45 163 56 31 11 57
24 57 30 0 5 -8 7 -17 4 -10 -3 -58 -14 -108 -25 -127 -27 -187 -43 -207 -52
-10 -6 -19 -5 -23 1 -3 5 -20 7 -38 4 -21 -4 -27 -2 -19 3 9 7 1 13 -27 21
-27 9 -52 28 -82 63 -36 43 -47 50 -73 48 -17 -2 -41 3 -53 9 -28 16 -72 15
-78 0z m75 -68 c13 -9 13 -10 0 -10 -8 0 -22 5 -30 10 -13 9 -13 10 0 10 8 0
22 -5 30 -10z m96 -15 c4 -15 1 -32 -6 -40 -18 -21 -57 -19 -70 5 -16 30 4 60
40 60 23 0 31 -5 36 -25z m-37 -105 c0 -10 -3 -8 -9 5 -12 27 -12 43 0 25 5
-8 9 -22 9 -30z m31 30 c0 -5 -2 -10 -4 -10 -3 0 -8 5 -11 10 -3 6 -1 10 4 10
6 0 11 -4 11 -10z m175 -10 c-3 -5 -14 -10 -23 -9 -14 0 -13 2 3 9 27 11 27
11 20 0z m-125 -39 c0 -28 -28 -47 -48 -34 -24 15 -27 44 -7 59 22 17 55 1 55
-25z m90 -74 c0 -4 -18 3 -40 15 -52 30 -52 43 0 15 22 -12 40 -26 40 -30z
m-150 -7 c24 -24 25 -43 4 -64 -18 -19 -55 -21 -72 -4 -18 18 -15 65 6 77 25
15 40 13 62 -9z m35 -100 c10 -11 16 -20 13 -20 -3 0 -13 9 -23 20 -10 11 -16
20 -13 20 3 0 13 -9 23 -20z m80 -60 c0 -29 -4 -36 -23 -38 -43 -6 -69 37 -40
66 7 7 24 12 38 10 21 -3 25 -8 25 -38z m-1 -140 c4 -21 3 -31 -3 -25 -5 6
-12 33 -15 60 -6 52 5 31 18 -35z"/>
<path d="M5164 3256 c-10 -26 4 -48 28 -44 17 2 23 10 23 28 0 18 -6 26 -23
28 -13 2 -25 -3 -28 -12z m36 -16 c0 -5 -4 -10 -10 -10 -5 0 -10 5 -10 10 0 6
5 10 10 10 6 0 10 -4 10 -10z"/>
<path d="M5214 3135 c-4 -9 -2 -21 4 -27 15 -15 44 -1 40 19 -4 23 -36 29 -44
8z m31 -5 c3 -5 -1 -10 -10 -10 -9 0 -13 5 -10 10 3 6 8 10 10 10 2 0 7 -4 10
-10z"/>
<path d="M5155 3047 c-10 -8 -16 -23 -13 -38 2 -19 9 -24 33 -24 25 0 31 4 33
27 4 34 -26 54 -53 35z m35 -33 c0 -17 -22 -14 -28 4 -2 7 3 12 12 12 9 0 16
-7 16 -16z"/>
<path d="M5264 2906 c-10 -26 4 -48 28 -44 17 2 23 10 23 28 0 18 -6 26 -23
28 -13 2 -25 -3 -28 -12z m36 -16 c0 -5 -4 -10 -10 -10 -5 0 -10 5 -10 10 0 6
5 10 10 10 6 0 10 -4 10 -10z"/>
<path d="M3051 3314 c-74 -62 1 -175 87 -130 32 16 42 34 42 71 0 37 -10 55
-41 70 -39 21 -53 19 -88 -11z"/>
<path d="M1658 3263 c-8 -10 -25 -47 -37 -83 -18 -56 -19 -66 -7 -78 8 -8 21
-12 29 -9 21 8 55 116 49 155 -5 36 -12 40 -34 15z"/>
<path d="M3952 3208 c-16 -16 -15 -53 1 -66 6 -5 59 -30 117 -55 119 -52 120
-52 180 25 l41 51 -33 28 -33 29 -32 -37 -33 -36 -82 36 c-89 40 -107 44 -126
25z"/>
<path d="M2558 3203 c7 -3 16 -2 19 1 4 3 -2 6 -13 5 -11 0 -14 -3 -6 -6z"/>
<path d="M503 3123 c9 -2 25 -2 35 0 9 3 1 5 -18 5 -19 0 -27 -2 -17 -5z"/>
<path d="M376 3111 c-13 -20 -19 -131 -7 -131 16 0 14 -41 -3 -54 -18 -15 -29
-86 -13 -92 8 -3 11 -22 8 -55 -2 -36 0 -49 8 -45 6 4 11 28 12 54 0 26 4 56
9 67 7 14 9 2 7 -40 l-2 -60 41 -3 42 -3 5 43 c4 24 9 89 13 146 5 74 10 102
20 102 17 0 21 -19 29 -135 9 -157 9 -157 58 -153 l42 3 -2 60 c-1 47 0 53 6
30 5 -16 9 -47 10 -67 0 -20 6 -40 13 -44 8 -5 10 7 5 44 -4 31 -2 52 3 52 17
0 12 90 -5 96 -17 7 -20 50 -4 60 13 8 3 113 -12 129 -13 13 -28 -12 -22 -36
3 -10 0 -19 -6 -19 -6 0 -11 11 -11 25 l0 25 -100 0 -100 0 0 -25 c0 -14 -4
-25 -10 -25 -5 0 -10 11 -10 24 0 26 -15 43 -24 27z m5 -114 c-13 -13 -14 19
-3 78 l7 40 3 -54 c2 -30 -2 -59 -7 -64z m279 86 c0 -10 3 -35 6 -55 4 -24 3
-38 -4 -38 -5 0 -12 25 -14 55 -1 30 0 55 5 55 4 0 7 -8 7 -17z m-255 -141
c-10 -81 -18 -55 -9 30 5 40 10 62 12 49 2 -14 1 -49 -3 -79z m238 20 c4 -44
2 -70 -4 -67 -5 4 -9 38 -9 77 0 89 5 85 13 -10z m-271 -86 c-2 -20 -7 -34
-11 -32 -4 3 -5 21 -3 40 2 20 7 34 11 32 4 -3 5 -21 3 -40z m308 -3 c0 -43
-5 -41 -13 5 -4 18 -2 32 3 32 6 0 10 -16 10 -37z"/>
<path d="M284 3076 c-11 -29 0 -51 26 -51 21 0 25 5 25 30 0 24 -5 31 -23 33
-13 2 -24 -3 -28 -12z"/>
<path d="M703 3084 c-19 -8 1 -59 24 -62 23 -3 37 21 28 49 -6 18 -26 23 -52
13z"/>
<path d="M3431 2961 c-17 -21 -31 -42 -31 -46 0 -6 20 17 59 68 7 9 11 17 8
17 -3 0 -19 -18 -36 -39z"/>
<path d="M2787 2853 c18 -2 50 -2 70 0 21 2 7 4 -32 4 -38 0 -55 -2 -38 -4z"/>
<path d="M2898 2833 c23 -2 61 -2 85 0 23 2 4 4 -43 4 -47 0 -66 -2 -42 -4z"/>
<path d="M390 2717 c0 -50 62 -66 82 -21 14 31 0 44 -49 44 -28 0 -33 -4 -33
-23z"/>
<path d="M573 2733 c-16 -6 -17 -35 -1 -51 29 -29 78 -7 78 35 0 19 -5 23 -32
22 -18 0 -39 -3 -45 -6z"/>
<path d="M1356 2439 c-34 -27 -37 -88 -4 -119 45 -42 138 -8 138 50 0 74 -77
114 -134 69z"/>
<path d="M3822 2433 c-18 -16 -47 -91 -38 -100 5 -6 170 54 173 63 5 14 -60
54 -89 54 -14 0 -35 -8 -46 -17z"/>
<path d="M5383 2410 c-28 -12 -46 -46 -45 -87 1 -32 1 -32 -51 -35 -41 -2 -53
-7 -55 -22 -7 -35 10 -38 156 -26 l140 12 71 -33 c39 -18 71 -36 71 -39 0 -3
-28 -15 -62 -26 -69 -23 -253 -146 -264 -177 -7 -21 21 -57 43 -57 8 0 58 31
111 68 76 54 119 76 195 102 83 27 102 37 118 64 10 17 19 40 19 50 0 25 -71
90 -128 118 -60 29 -143 36 -161 14 -12 -14 -9 -16 27 -16 46 0 72 -22 55 -48
-5 -10 -21 -18 -34 -19 -24 -2 -24 -2 1 5 16 5 25 15 25 27 0 17 -8 20 -61 23
-58 3 -61 4 -57 26 9 48 -64 97 -114 76z m70 -107 c-18 -2 -48 -2 -65 0 -18 2
-4 4 32 4 36 0 50 -2 33 -4z"/>
<path d="M2378 2379 c-23 -21 -29 -32 -20 -38 18 -11 162 -44 168 -38 9 9 -29
88 -47 97 -33 18 -68 11 -101 -21z"/>
<path d="M4831 2384 c-74 -62 1 -175 87 -130 60 31 58 111 -5 144 -32 18 -48
15 -82 -14z"/>
<path d="M5270 2400 c0 -5 5 -10 11 -10 5 0 7 5 4 10 -3 6 -8 10 -11 10 -2 0
-4 -4 -4 -10z"/>
<path d="M4178 2367 c-182 -26 -208 -32 -208 -48 0 -10 -15 -30 -34 -45 -30
-24 -33 -30 -23 -51 6 -13 18 -22 26 -21 9 2 14 6 11 9 -7 8 69 73 77 65 3 -3
1 -6 -5 -6 -6 0 -25 -20 -43 -45 -17 -24 -36 -42 -42 -38 -5 3 -13 -1 -18 -8
-6 -11 -11 -11 -21 -1 -9 9 -9 12 0 12 18 0 14 18 -9 41 -16 16 -29 20 -51 15
-22 -4 -37 0 -55 14 -49 39 -69 28 -113 -60 -40 -79 -49 -123 -30 -135 7 -4 7
-12 0 -25 -18 -34 -12 -60 18 -71 15 -6 34 -15 42 -20 8 -5 29 -15 46 -24 17
-9 53 -37 81 -63 45 -42 54 -58 83 -145 33 -103 53 -127 89 -108 30 16 30 32
5 111 -13 41 -26 93 -29 115 -3 22 -13 45 -23 52 -73 50 -132 99 -132 110 0 8
11 36 25 64 14 27 22 55 18 62 -4 7 9 0 29 -15 20 -16 43 -28 51 -28 17 0 47
31 47 49 0 7 14 33 31 57 19 28 29 53 26 65 -3 10 -1 17 4 13 5 -3 9 -14 9
-25 0 -10 6 -19 13 -19 21 0 371 50 385 55 7 3 11 14 8 27 -3 13 -8 40 -11 61
-7 46 4 45 -277 4z m-316 -154 c10 -9 18 -24 18 -33 0 -29 21 -42 41 -24 14
12 22 13 38 4 27 -14 27 -46 0 -61 -17 -9 -24 -8 -38 7 -15 17 -15 17 2 4 15
-11 20 -11 35 3 15 16 15 18 -1 35 -17 16 -19 16 -31 -1 -14 -18 -46 -14 -46
6 0 7 -4 7 -12 -1 -39 -39 -100 17 -63 58 22 24 33 25 57 3z m138 -13 c-12
-16 -24 -30 -26 -30 -7 0 5 20 24 43 24 27 25 20 2 -13z m-50 -70 c0 -5 -4
-10 -10 -10 -5 0 -10 5 -10 10 0 6 5 10 10 10 6 0 10 -4 10 -10z m-157 -111
c16 -26 0 -68 -29 -75 -29 -7 -64 18 -64 47 0 44 70 65 93 28z m119 -132 c14
3 29 0 33 -7 5 -9 2 -10 -13 -6 -12 4 -26 1 -36 -9 -13 -13 -16 -13 -16 -3 0
8 -18 27 -40 44 -22 16 -40 33 -40 38 0 4 19 -7 43 -27 32 -26 50 -34 69 -30z
m18 -36 c0 -6 -4 -13 -10 -16 -5 -3 -10 1 -10 9 0 9 5 16 10 16 6 0 10 -4 10
-9z m30 -5 c0 -17 -27 -46 -43 -46 -6 0 -1 7 11 16 12 8 22 22 22 30 0 8 2 14
5 14 3 0 5 -6 5 -14z m-66 -22 c3 -8 2 -12 -4 -9 -6 3 -10 10 -10 16 0 14 7
11 14 -7z m69 -90 c10 -31 17 -58 14 -60 -3 -3 -14 22 -25 55 -11 34 -18 61
-14 61 4 0 15 -25 25 -56z"/>
<path d="M3815 2203 c-18 -18 -16 -32 8 -47 21 -13 51 13 42 36 -10 24 -32 29
-50 11z m35 -24 c0 -5 -7 -9 -15 -9 -15 0 -20 12 -9 23 8 8 24 -1 24 -14z"/>
<path d="M3726 2014 c-15 -14 -15 -19 -3 -38 17 -26 46 -27 61 -3 23 37 -27
73 -58 41z m41 -30 c-3 -4 -14 -3 -24 0 -15 6 -15 8 -3 16 16 10 39 -4 27 -16z"/>
<path d="M3870 2349 c-72 -26 -77 -32 -47 -63 51 -51 137 -17 137 54 0 36 -11
37 -90 9z"/>
<path d="M2244 2322 c-5 -4 -30 -40 -56 -79 -46 -70 -59 -115 -38 -128 7 -4 7
-11 2 -18 -30 -38 -22 -74 21 -90 9 -3 17 -13 17 -21 0 -8 31 -40 69 -70 39
-31 73 -61 77 -68 5 -7 -12 4 -36 24 l-45 36 0 -72 c0 -59 -5 -81 -27 -125
-16 -29 -28 -59 -28 -66 0 -20 38 -44 60 -38 26 7 78 113 86 174 9 68 25 51
60 -61 31 -104 51 -129 89 -112 32 15 32 34 -5 149 -16 51 -30 100 -30 108 0
9 -13 23 -28 33 -15 9 -49 35 -74 56 l-46 39 16 36 c22 47 21 46 34 33 9 -9 9
-12 -2 -12 -10 0 -11 -3 -3 -11 8 -8 17 -6 34 10 13 11 28 21 33 21 6 0 4 -5
-4 -10 -13 -9 -12 -12 5 -22 11 -6 41 -33 68 -59 26 -27 55 -49 65 -49 22 0
158 -93 164 -112 3 -7 -1 -22 -9 -34 -12 -20 -10 -23 29 -49 l42 -28 18 24
c10 13 32 40 48 60 l29 37 -47 31 c-46 30 -47 31 -61 11 -7 -11 -19 -20 -26
-20 -15 0 -148 89 -154 102 -1 5 -26 37 -53 71 -27 34 -67 89 -89 123 -44 67
-92 109 -115 100 -11 -4 -14 -1 -10 12 9 27 -58 80 -80 64z m10 -91 c9 -10 14
-25 10 -35 -3 -9 -2 -16 3 -16 5 0 33 -20 62 -45 68 -58 58 -58 -17 0 -36 28
-65 43 -74 40 -15 -6 -48 18 -48 35 0 11 29 40 39 40 4 0 15 -8 25 -19z m75
-7 c10 -9 -35 -3 -49 6 -11 8 -7 9 15 4 17 -4 32 -8 34 -10z m8 -54 c14 -11
22 -20 17 -20 -12 1 -61 39 -51 40 5 0 20 -9 34 -20z m-57 -42 c0 -5 -9 -3
-20 4 -11 7 -20 16 -20 20 0 5 9 3 20 -4 11 -7 20 -16 20 -20z m111 -5 c13
-16 12 -17 -3 -4 -10 7 -18 15 -18 17 0 8 8 3 21 -13z m-70 -30 c13 -16 12
-17 -3 -4 -10 7 -18 15 -18 17 0 8 8 3 21 -13z m-43 -49 c12 -8 22 -25 22 -36
0 -25 -27 -58 -47 -58 -18 0 -53 36 -53 55 0 16 34 55 48 55 4 0 18 -7 30 -16z
m62 -124 c19 -17 30 -30 25 -30 -6 0 -26 14 -45 30 -19 16 -30 29 -25 29 6 0
26 -13 45 -29z m106 -56 c12 -45 -38 -73 -67 -37 -13 15 -12 15 7 3 29 -18 56
-6 52 22 -3 27 -46 38 -59 16 -6 -9 -9 -9 -9 -1 0 17 29 31 52 25 10 -2 21
-15 24 -28z m-26 -14 c0 -5 -4 -10 -10 -10 -5 0 -10 5 -10 10 0 6 5 10 10 10
6 0 10 -4 10 -10z m32 -108 c10 -26 18 -54 17 -62 0 -12 -48 105 -49 119 0 14
17 -17 32 -57z"/>
<path d="M2210 2224 c-11 -12 -10 -18 3 -32 16 -15 18 -15 34 0 13 14 14 20 3
32 -7 9 -16 16 -20 16 -4 0 -13 -7 -20 -16z m30 -14 c0 -5 -4 -10 -10 -10 -5
0 -10 5 -10 10 0 6 5 10 10 10 6 0 10 -4 10 -10z"/>
<path d="M2219 2024 c-17 -21 0 -48 34 -52 18 -2 27 2 32 18 13 41 -38 68 -66
34z m43 -19 c0 -5 -5 -11 -11 -13 -6 -2 -11 4 -11 13 0 9 5 15 11 13 6 -2 11
-8 11 -13z"/>
<path d="M2356 2322 c-14 -13 -4 -55 19 -77 32 -33 83 -34 113 -2 32 33 27 45
-20 57 -24 6 -57 15 -75 20 -17 4 -34 5 -37 2z"/>
<path d="M1552 2225 c4 -112 -5 -120 -52 -42 -48 78 -69 97 -107 97 -19 0 -33
-5 -33 -12 0 -9 -3 -9 -12 0 -18 18 -63 15 -86 -5 -20 -18 -20 -18 14 -118 21
-63 29 -104 23 -109 -14 -15 -11 -55 5 -72 8 -8 28 -14 45 -14 26 0 31 4 31
23 0 37 35 63 68 51 50 -17 37 -94 -16 -94 -16 0 -32 4 -38 10 -6 6 -8 -17 -6
-64 l4 -74 -51 -68 c-57 -75 -64 -108 -26 -126 31 -14 41 -6 117 95 68 92 74
126 31 178 l-28 33 28 -18 c41 -28 81 -94 112 -185 37 -111 62 -133 100 -90
19 20 18 23 -25 151 -44 128 -46 131 -97 172 -82 64 -69 97 37 94 65 -1 65 -1
16 -7 -27 -3 -51 -12 -54 -18 -4 -14 13 -15 215 -17 l113 -1 0 163 0 162 -166
0 -165 0 3 -95z m-94 -42 c2 -24 -2 -34 -17 -43 -28 -15 -61 3 -61 33 0 31 20
48 50 45 20 -2 26 -9 28 -35z m-98 1 c0 -2 -11 -4 -25 -4 -14 0 -25 4 -25 9 0
4 11 6 25 3 14 -2 25 -6 25 -8z m278 -91 c-10 -2 -26 -2 -35 0 -10 3 -2 5 17
5 19 0 27 -2 18 -5z m-154 -53 c8 0 20 8 25 18 9 15 10 16 11 0 0 -9 -9 -20
-20 -23 -24 -8 -50 10 -49 34 0 11 3 9 9 -6 5 -13 16 -23 24 -23z m16 30 c0
-5 -4 -10 -10 -10 -5 0 -10 5 -10 10 0 6 5 10 10 10 6 0 10 -4 10 -10z m128
-7 c-15 -2 -42 -2 -60 0 -18 2 -6 4 27 4 33 0 48 -2 33 -4z m-102 -154 c4 -8
1 -8 -14 0 -12 6 -24 16 -28 22 -4 8 -1 8 14 0 12 -6 24 -16 28 -22z m12 -28
c-9 -15 -9 -23 1 -35 8 -9 19 -16 26 -16 7 0 18 7 26 16 11 13 10 19 -1 37
-12 20 -12 21 3 8 36 -29 8 -79 -37 -67 -29 7 -43 41 -26 61 18 21 22 18 8 -4z
m36 -22 c-3 -5 -10 -7 -15 -3 -5 3 -7 10 -3 15 3 5 10 7 15 3 5 -3 7 -10 3
-15z m40 -106 c10 -32 21 -65 24 -73 3 -10 2 -12 -5 -5 -14 14 -54 135 -44
135 4 0 15 -26 25 -57z"/>
<path d="M1394 2196 c-10 -26 4 -48 28 -44 17 2 23 10 23 28 0 18 -6 26 -23
28 -13 2 -25 -3 -28 -12z m36 -16 c0 -5 -4 -10 -10 -10 -5 0 -10 5 -10 10 0 6
5 10 10 10 6 0 10 -4 10 -10z"/>
<path d="M3740 2300 c-13 -8 -12 -10 3 -10 11 0 32 -9 47 -20 34 -24 45 -14
20 18 -19 23 -45 28 -70 12z"/>
<path d="M3467 2265 c-120 -18 -221 -35 -224 -39 -3 -3 -1 -31 3 -63 11 -68
-3 -65 189 -38 206 28 200 26 236 98 18 34 37 65 43 69 17 12 -13 9 -247 -27z
m78 -15 c3 -5 1 -10 -4 -10 -6 0 -11 5 -11 10 0 6 2 10 4 10 3 0 8 -4 11 -10z"/>
<path d="M405 2234 c-83 -66 -87 -71 -79 -106 4 -21 2 -28 -9 -28 -8 0 -18
-11 -21 -25 -7 -27 8 -65 24 -65 6 0 10 -16 10 -35 0 -39 28 -75 58 -75 10 0
31 -14 48 -31 29 -30 29 -31 26 -140 l-3 -109 26 -12 c45 -20 60 9 74 141 l12
115 -56 56 -56 56 26 28 c14 15 25 35 26 44 1 34 18 -22 18 -63 1 -46 15 -65
45 -65 12 0 49 -13 84 -30 65 -31 92 -31 92 1 0 13 -19 28 -62 50 -98 50 -120
88 -94 164 18 55 14 70 -25 87 -16 7 -27 18 -25 25 6 15 -40 73 -57 73 -7 0
-43 -25 -82 -56z m80 -44 c16 -16 24 -30 18 -30 -7 0 -21 14 -33 30 -12 17
-20 30 -18 30 3 0 17 -13 33 -30z m85 -44 c28 -35 -11 -93 -47 -70 -36 22 -23
84 17 84 10 0 23 -7 30 -14z m-10 -111 c0 -14 -2 -25 -4 -25 -2 0 -6 11 -8 25
-3 14 -1 25 3 25 5 0 9 -11 9 -25z m-126 -44 c22 -24 13 -58 -19 -73 -46 -21
-88 29 -58 71 18 26 55 27 77 2z m167 -7 c17 -21 0 -49 -32 -49 -24 0 -36 23
-25 51 7 19 40 18 57 -2z m99 -75 c19 -10 28 -18 20 -18 -8 0 -35 11 -60 25
-50 28 -15 22 40 -7z m-229 -6 c13 -16 12 -17 -3 -4 -10 7 -18 15 -18 17 0 8
8 3 21 -13z m87 -57 c10 -47 -60 -64 -80 -20 -11 23 -10 29 11 45 21 17 26 18
45 6 12 -8 22 -22 24 -31z m-47 -141 c-8 -54 -9 -56 -10 -19 -1 45 11 118 16
94 2 -8 -1 -42 -6 -75z"/>
<path d="M523 2143 c-19 -7 -16 -50 4 -57 24 -10 51 20 37 41 -12 19 -23 24
-41 16z m27 -28 c0 -8 -4 -15 -9 -15 -13 0 -22 16 -14 24 11 11 23 6 23 -9z"/>
<path d="M373 1994 c-20 -8 -15 -52 6 -63 26 -14 54 8 49 40 -3 24 -28 34 -55
23z m37 -29 c0 -8 -7 -15 -15 -15 -16 0 -20 12 -8 23 11 12 23 8 23 -8z"/>
<path d="M552 1968 c4 -30 43 -33 43 -3 0 13 -8 21 -23 23 -20 3 -23 0 -20
-20z m28 -4 c0 -8 -5 -12 -10 -9 -6 4 -8 11 -5 16 9 14 15 11 15 -7z"/>
<path d="M490 1845 c0 -31 26 -43 47 -22 21 21 9 47 -22 47 -20 0 -25 -5 -25
-25z m40 -6 c0 -5 -7 -9 -15 -9 -15 0 -20 12 -9 23 8 8 24 -1 24 -14z"/>
<path d="M646 2269 c-48 -38 -26 -136 32 -140 40 -3 58 3 80 27 35 40 23 101
-25 123 -35 16 -57 14 -87 -10z"/>
<path d="M4675 2260 c-9 -14 -45 -161 -45 -183 0 -12 10 -31 22 -44 12 -13 17
-23 11 -23 -15 0 -4 -41 16 -60 9 -9 23 -14 32 -12 16 3 127 -67 178 -112 12
-12 45 -64 71 -117 50 -99 68 -116 100 -99 32 17 30 40 -14 133 -24 51 -49
104 -55 119 -5 14 -25 34 -43 42 -18 9 -46 27 -63 40 -27 22 -29 28 -26 77 7
128 12 117 -41 102 -10 -3 -23 5 -33 21 -17 25 -17 28 0 46 32 35 75 19 75
-27 0 -21 4 -23 55 -23 30 0 64 -5 74 -12 15 -9 25 -9 46 0 14 7 54 12 89 12
50 0 65 4 70 16 11 30 -13 42 -92 48 -99 7 -97 7 -165 0 -48 -5 -61 -3 -71 12
-10 13 -22 16 -54 11 -31 -4 -42 -2 -42 8 0 7 -14 18 -31 24 -39 13 -56 14
-64 1z m85 -80 c0 -4 -11 -5 -25 -2 -14 2 -25 8 -25 12 0 4 11 5 25 2 14 -2
25 -8 25 -12z m281 4 c9 -11 10 -20 2 -32 -15 -24 -44 -27 -59 -7 -28 38 27
75 57 39z m-98 -21 c-13 -2 -35 -2 -50 0 -16 2 -5 4 22 4 28 0 40 -2 28 -4z
m195 0 c-16 -2 -40 -2 -55 0 -16 2 -3 4 27 4 30 0 43 -2 28 -4z m-310 -155 c7
-7 12 -24 12 -38 0 -48 -45 -67 -82 -33 -22 20 -23 41 -1 65 18 21 53 24 71 6z
m47 -108 c17 -11 26 -20 20 -20 -5 0 -23 9 -40 20 -16 11 -25 20 -20 20 6 0
24 -9 40 -20z m93 -22 c34 -34 -6 -90 -48 -68 -35 19 -20 80 20 80 9 0 21 -5
28 -12z m40 -144 c18 -37 31 -69 28 -71 -3 -3 -21 27 -40 66 -20 39 -33 71
-28 71 4 0 22 -30 40 -66z"/>
<path d="M4987 2176 c-7 -19 18 -40 39 -32 8 3 14 14 12 23 -4 22 -43 29 -51
9z m33 -6 c0 -5 -4 -10 -10 -10 -5 0 -10 5 -10 10 0 6 5 10 10 10 6 0 10 -4
10 -10z"/>
<path d="M4774 2002 c-20 -13 -23 -41 -7 -57 19 -19 42 -16 57 8 19 30 -20 70
-50 49z m31 -42 c-5 -8 -11 -8 -17 -2 -6 6 -7 16 -3 22 5 8 11 8 17 2 6 -6 7
-16 3 -22z"/>
<path d="M4917 1874 c-12 -12 -8 -41 8 -54 20 -17 47 5 43 34 -3 21 -37 34
-51 20z m33 -29 c0 -8 -4 -15 -10 -15 -5 0 -10 7 -10 15 0 8 5 15 10 15 6 0
10 -7 10 -15z"/>
<path d="M4987 2233 c18 -2 50 -2 70 0 21 2 7 4 -32 4 -38 0 -55 -2 -38 -4z"/>
<path d="M4026 2177 c-32 -41 -33 -59 -5 -55 12 2 31 21 46 46 24 41 24 42 5
42 -12 0 -32 -15 -46 -33z"/>
<path d="M4797 2194 c-13 -14 -7 -52 10 -58 25 -10 51 20 37 42 -12 19 -36 27
-47 16z m33 -22 c0 -13 -12 -22 -22 -16 -10 6 -1 24 13 24 5 0 9 -4 9 -8z"/>
<path d="M5008 2103 c23 -2 59 -2 80 0 20 2 1 4 -43 4 -44 0 -61 -2 -37 -4z"/>
<path d="M5360 2099 c0 -5 5 -7 10 -4 6 3 10 8 10 11 0 2 -4 4 -10 4 -5 0 -10
-5 -10 -11z"/>
<path d="M640 2018 c0 -42 1 -44 58 -73 63 -33 79 -65 43 -85 -16 -8 -29 -6
-61 10 l-40 20 0 -75 0 -75 160 0 160 0 0 160 0 160 -160 0 -160 0 0 -42z"/>
<path d="M1406 2007 c-36 -26 4 -84 42 -61 24 16 27 45 6 61 -10 7 -21 13 -24
13 -3 0 -14 -6 -24 -13z m34 -32 c0 -8 -4 -15 -10 -15 -5 0 -10 7 -10 15 0 8
5 15 10 15 6 0 10 -7 10 -15z"/>
<path d="M2767 1934 c-3 -3 -3 -12 0 -20 4 -10 10 -11 24 -3 11 5 17 14 14 20
-7 10 -28 12 -38 3z"/>
<path d="M4727 1913 c-2 -5 -12 -31 -21 -58 -12 -38 -33 -68 -86 -120 -39 -38
-70 -77 -70 -87 0 -21 26 -48 47 -48 8 0 51 34 94 76 65 63 81 87 98 135 l20
59 -27 18 c-42 29 -50 33 -55 25z"/>
<path d="M3758 1845 c4 -56 0 -73 -27 -130 -23 -50 -28 -71 -21 -85 11 -21 35
-31 55 -24 24 10 63 83 81 153 l16 64 -29 23 c-15 14 -39 33 -53 43 l-26 19 4
-63z"/>
<path d="M2892 1818 c-17 -13 -50 -49 -72 -80 -37 -52 -43 -56 -65 -48 -46 18
-101 0 -154 -49 l-33 -31 291 0 c160 0 291 2 291 5 0 18 -33 65 -49 70 -11 3
-23 16 -27 28 -8 29 -45 68 -56 61 -9 -6 -25 6 -66 49 -21 22 -21 22 -60 -5z"/>
<path d="M2685 1730 c-3 -5 -1 -10 4 -10 6 0 11 5 11 10 0 6 -2 10 -4 10 -3 0
-8 -4 -11 -10z"/>
<path d="M2555 1649 c-10 -15 3 -25 16 -12 7 7 7 13 1 17 -6 3 -14 1 -17 -5z"/>
<path d="M2530 1609 c0 -5 5 -7 10 -4 6 3 10 8 10 11 0 2 -4 4 -10 4 -5 0 -10
-5 -10 -11z"/>
<path d="M1800 1378 c0 -29 -5 -99 -12 -155 -11 -98 -13 -103 -35 -103 -23 0
-59 -40 -109 -126 -22 -37 -23 -45 -12 -70 10 -22 10 -28 0 -32 -17 -5 -15
-50 2 -68 8 -8 26 -14 40 -14 16 0 26 -6 26 -15 0 -13 -28 -15 -188 -15 -147
0 -192 -3 -208 -14 -17 -13 -19 -30 -22 -195 l-3 -181 -30 0 c-26 0 -29 -3
-29 -30 l0 -30 750 0 750 0 0 30 c0 27 -3 30 -30 30 l-30 0 0 166 c0 160 -6
198 -34 216 -17 12 -576 10 -576 -2 0 -6 102 -10 285 -10 329 0 305 9 305
-109 l0 -71 -352 2 -353 3 -10 52 c-7 34 -20 62 -39 82 -28 29 -34 31 -96 29
l-66 -2 7 -51 c5 -38 3 -57 -10 -80 l-17 -30 -202 -3 -202 -2 0 78 c0 47 5 83
12 90 9 9 95 12 325 12 202 0 313 4 313 10 0 6 -27 10 -60 10 l-60 0 0 33 c0
45 13 63 30 42 7 -8 17 -15 23 -15 5 0 34 -22 63 -50 54 -51 84 -58 84 -17 0
18 -52 83 -130 162 -25 26 -29 35 -24 66 5 29 2 41 -14 57 -23 23 -43 149 -44
281 0 45 -4 84 -9 87 -5 3 -9 -19 -9 -48z m19 -273 c1 -26 -1 -27 -13 -15 -11
11 -13 27 -8 60 6 43 6 44 13 15 4 -16 7 -43 8 -60z m-69 -75 c13 -8 13 -10
-2 -10 -9 0 -20 5 -23 10 -8 13 5 13 25 0z m94 -6 c9 -8 16 -22 16 -29 0 -16
-27 -45 -42 -45 -16 0 -48 31 -48 46 0 17 28 44 45 44 7 0 21 -7 29 -16z m21
-84 c3 -5 1 -10 -4 -10 -6 0 -11 5 -11 10 0 6 2 10 4 10 3 0 8 -4 11 -10z m49
-29 c10 -11 15 -25 11 -31 -4 -7 13 -33 41 -63 l49 -52 -51 48 c-32 31 -56 46
-66 42 -15 -6 -48 18 -48 35 0 11 29 40 39 40 4 0 16 -9 25 -19z m-103 -93 c6
-10 8 -24 6 -31 -3 -7 -10 1 -16 16 -9 23 -16 28 -38 25 -19 -2 -29 -10 -34
-28 -6 -23 -7 -23 -8 -3 -2 47 68 63 90 21z m-31 -23 c0 -8 -7 -15 -15 -15 -8
0 -15 7 -15 15 0 8 7 15 15 15 8 0 15 -7 15 -15z m50 -75 c6 -11 9 -20 7 -20
-2 0 -12 9 -22 20 -10 11 -13 20 -7 20 6 0 16 -9 22 -20z m-39 -33 l23 -32
-23 20 c-13 11 -27 28 -33 39 -16 29 7 11 33 -27z m109 -2 c15 -18 6 -61 -16
-69 -26 -10 -54 12 -54 44 0 39 45 55 70 25z m-60 -90 c0 -8 -7 -15 -15 -15
-9 0 -12 6 -9 15 4 8 10 15 15 15 5 0 9 -7 9 -15z m55 -5 c3 -5 1 -10 -4 -10
-6 0 -11 5 -11 10 0 6 2 10 4 10 3 0 8 -4 11 -10z m745 -115 l0 -85 -670 0
-670 0 0 85 0 85 670 0 670 0 0 -85z"/>
<path d="M1791 1017 c-25 -31 13 -66 46 -42 14 11 16 18 7 32 -14 23 -38 28
-53 10z m39 -15 c0 -13 -12 -22 -22 -16 -10 6 -1 24 13 24 5 0 9 -4 9 -8z"/>
<path d="M1870 904 c-11 -12 -10 -18 3 -31 22 -23 52 0 36 28 -12 23 -22 24
-39 3z m30 -14 c0 -5 -4 -10 -10 -10 -5 0 -10 5 -10 10 0 6 5 10 10 10 6 0 10
-4 10 -10z"/>
<path d="M1844 676 c-10 -26 4 -48 28 -44 17 2 23 10 23 28 0 18 -6 26 -23 28
-13 2 -25 -3 -28 -12z m36 -14 c0 -13 -12 -22 -22 -16 -10 6 -1 24 13 24 5 0
9 -4 9 -8z"/>
<path d="M1660 514 c-11 -21 -20 -48 -18 -62 4 -33 32 -51 56 -36 17 10 82
110 82 126 0 4 -22 8 -49 8 -46 0 -50 -2 -71 -36z"/>
<path d="M1858 545 c-8 -8 22 -107 37 -124 16 -17 60 -8 69 14 3 9 0 38 -6 65
-9 39 -16 50 -31 50 -17 0 -18 -5 -13 -36 4 -19 10 -43 13 -52 4 -10 2 -14 -3
-9 -5 5 -14 27 -19 50 -10 38 -31 57 -47 42z"/>
<path d="M5125 1350 c-11 -4 -32 -6 -46 -3 -38 7 -89 -39 -89 -81 0 -62 63
-100 118 -72 32 16 42 34 42 71 0 22 -2 23 -36 13 -47 -13 -56 -3 -10 12 43
14 88 48 81 61 -7 11 -33 11 -60 -1z"/>
<path d="M5595 1350 c-3 -5 -21 -10 -38 -11 l-32 -1 30 -9 c24 -7 34 -5 50 11
11 11 14 20 8 20 -7 0 -15 -4 -18 -10z"/>
<path d="M190 1215 l0 -125 35 0 35 0 0 55 0 55 36 0 c32 0 49 -12 157 -116
l122 -116 5 -86 5 -87 95 0 95 0 2 85 3 85 122 118 c112 107 126 117 160 117
l38 0 0 -55 0 -55 35 0 35 0 0 125 0 125 -35 0 -34 0 -3 -57 -3 -58 -417 -2
-418 -1 0 59 0 59 -35 0 -35 0 0 -125z m705 -26 c-4 -6 -13 -8 -20 -5 -16 6
-62 -42 -67 -69 -2 -12 -10 -19 -21 -17 -11 2 -15 -2 -11 -11 3 -9 -12 -29
-37 -51 -43 -36 -72 -45 -85 -25 -3 6 -14 9 -24 6 -24 -6 -58 31 -55 60 1 12
-3 21 -9 20 -5 -1 -12 7 -14 18 -6 28 -52 75 -67 69 -7 -3 -16 -1 -20 5 -4 8
61 11 215 11 154 0 219 -3 215 -11z m15 -12 c0 -1 -39 -41 -87 -87 l-88 -85
85 88 c79 81 90 92 90 84z m-390 -27 c14 -10 21 -22 17 -26 -4 -4 -20 4 -35
19 -31 31 -19 36 18 7z m330 -5 c-13 -14 -26 -23 -28 -20 -7 7 29 45 41 45 6
0 0 -11 -13 -25z"/>
<path d="M643 1180 c-27 -11 -43 -40 -43 -77 1 -77 99 -106 144 -41 30 42 17
91 -31 116 -25 14 -40 14 -70 2z"/>
<path d="M595 1040 c10 -11 20 -20 23 -20 3 0 -3 9 -13 20 -10 11 -20 20 -23
20 -3 0 3 -9 13 -20z"/>
<path d="M5466 1271 c-3 -5 -15 -7 -25 -4 -10 3 -21 1 -24 -4 -9 -14 46 -12
67 3 17 12 18 14 4 14 -9 0 -19 -4 -22 -9z"/>
<path d="M4803 1226 c-48 -35 -50 -116 -3 -149 18 -12 19 -16 5 -27 -26 -22
-39 -83 -26 -123 17 -50 81 -105 131 -113 35 -6 44 -13 61 -46 l20 -40 -35
-89 c-20 -49 -36 -98 -36 -108 0 -25 24 -43 52 -39 19 2 31 23 71 120 l47 118
-25 50 -26 51 28 -7 c79 -19 80 -21 113 -139 25 -92 34 -105 65 -105 46 0 51
23 25 118 -12 48 -26 104 -30 125 -10 50 -15 55 -91 73 -61 16 -99 34 -70 34
11 0 11 3 1 15 -18 22 -3 55 26 55 24 0 24 0 7 26 -10 16 -16 42 -14 69 2 46
-16 75 -49 75 -10 0 -42 14 -70 32 -61 38 -142 49 -177 24z m97 -50 c0 -2 -9
-2 -20 1 -39 10 -67 -43 -40 -75 5 -7 0 -3 -11 7 -41 37 5 105 54 79 9 -5 17
-10 17 -12z m4 -32 c7 -19 -10 -44 -31 -44 -17 0 -27 24 -19 45 7 20 42 19 50
-1z m178 -29 c9 -21 8 -28 -7 -45 -10 -11 -23 -20 -30 -20 -7 0 -20 9 -30 20
-25 28 -7 70 30 70 17 0 29 -8 37 -25z m8 -98 c0 -5 -4 -5 -10 -2 -5 3 -10 14
-10 23 0 15 2 15 10 2 5 -8 10 -19 10 -23z m-30 -21 c0 -12 -5 -7 -19 24 -11
24 -11 24 3 6 9 -11 16 -24 16 -30z m-41 -78 c14 -24 14 -28 -3 -47 -36 -39
-86 -21 -86 31 0 51 63 63 89 16z m81 -54 l35 -14 -35 6 c-40 7 -76 24 -50 23
8 0 31 -7 50 -15z m110 -4 c24 -24 25 -34 4 -54 -29 -29 -74 -13 -74 25 0 19
25 49 41 49 5 0 18 -9 29 -20z m18 -152 c11 -38 17 -68 13 -68 -6 0 -41 116
-41 136 0 17 9 -5 28 -68z"/>
<path d="M5021 1116 c-16 -20 -3 -46 24 -46 13 0 26 7 29 16 7 19 -10 44 -29
44 -7 0 -18 -6 -24 -14z m37 -17 c-2 -6 -8 -10 -13 -10 -5 0 -11 4 -13 10 -2
6 4 11 13 11 9 0 15 -5 13 -11z"/>
<path d="M4958 929 c-35 -20 -11 -75 29 -67 22 4 29 43 13 64 -14 16 -19 17
-42 3z m32 -35 c0 -17 -22 -14 -28 4 -2 7 3 12 12 12 9 0 16 -7 16 -16z"/>
<path d="M5154 845 c-4 -9 0 -23 9 -32 21 -21 49 -9 45 19 -4 28 -45 38 -54
13z m37 -18 c-13 -13 -26 -3 -16 12 3 6 11 8 17 5 6 -4 6 -10 -1 -17z"/>
<path d="M5574 1229 c-3 -6 -15 -9 -25 -6 -10 3 -21 2 -24 -3 -11 -17 43 -16
65 2 16 13 18 18 7 18 -9 0 -19 -5 -23 -11z"/>
<path d="M1911 1199 c-55 -22 -69 -92 -26 -134 71 -72 180 34 113 109 -28 30
-55 38 -87 25z"/>
<path d="M4160 1169 c-54 -22 -103 -89 -65 -89 8 0 15 -9 15 -20 0 -30 40 -25
90 11 24 17 60 34 82 36 21 3 38 9 38 13 0 9 -78 47 -110 54 -14 3 -36 1 -50
-5z m40 -43 c0 -2 -7 -7 -16 -10 -8 -3 -12 -2 -9 4 6 10 25 14 25 6z"/>
<path d="M5180 1125 c-7 -8 -10 -18 -7 -22 4 -3 9 2 13 11 5 14 9 14 22 4 13
-11 14 -10 11 1 -7 21 -24 24 -39 6z"/>
<path d="M3125 1095 c-73 -72 28 -178 109 -114 20 16 26 29 26 58 0 74 -83
109 -135 56z"/>
<path d="M3930 1079 c-83 -23 -100 -33 -100 -60 0 -12 -7 -19 -19 -19 -41 0
-61 -58 -29 -87 11 -10 25 -32 33 -49 7 -17 34 -51 61 -75 27 -24 61 -56 76
-71 l28 -27 -30 -81 c-35 -94 -36 -103 -14 -124 17 -18 32 -20 52 -7 21 13 94
222 87 248 -5 22 -3 23 64 23 67 0 81 -7 81 -40 0 -4 -43 -42 -95 -84 -52 -42
-95 -82 -95 -88 0 -12 -7 -17 108 75 46 37 88 67 93 67 18 0 8 -18 -30 -57
-88 -87 -74 -209 30 -272 46 -28 119 -28 171 1 160 90 75 337 -108 316 -26 -3
-32 2 -54 47 l-25 50 -91 3 -90 3 -49 43 -49 43 64 25 65 25 20 -25 c10 -14
26 -39 35 -56 10 -20 25 -33 45 -37 17 -3 53 -18 80 -33 28 -15 42 -25 33 -22
-10 3 -20 0 -24 -6 -5 -7 5 -9 32 -3 50 9 51 10 60 47 3 18 11 40 17 50 15 22
1 36 -16 16 -15 -20 -75 -29 -102 -16 -23 12 -43 29 -98 83 -29 29 -35 40 -27
50 13 16 -1 49 -27 63 -9 5 -21 25 -27 43 -14 42 -34 45 -136 18z m154 -82
c37 -27 -2 -96 -41 -71 -32 20 -39 41 -19 63 22 24 35 26 60 8z m-176 -83 c30
-21 29 -59 -3 -80 -23 -15 -27 -15 -50 0 -32 21 -33 59 -3 80 12 9 25 16 28
16 3 0 16 -7 28 -16z m222 -36 c0 -14 -19 1 -31 25 -12 22 -12 22 10 3 11 -11
21 -23 21 -28z m61 -24 c9 -11 10 -20 2 -32 -15 -24 -44 -27 -59 -7 -28 38 27
75 57 39z m-206 -102 c-5 -6 -73 50 -74 61 -1 4 17 -7 39 -24 22 -18 38 -34
35 -37z m276 37 c23 -11 39 -23 36 -25 -3 -3 -27 6 -54 20 -26 14 -42 25 -35
26 7 0 31 -9 53 -21z m73 0 c19 -18 0 -16 -29 3 -27 18 -28 19 -5 13 14 -4 29
-11 34 -16z m-268 -64 c9 -22 -15 -55 -39 -55 -47 0 -63 48 -25 74 23 16 54 7
64 -19z m-71 -135 c-10 -33 -20 -58 -23 -55 -3 3 3 32 13 65 10 33 20 58 23
55 3 -3 -3 -32 -13 -65z m402 39 c18 -12 42 -38 53 -60 82 -159 -124 -303
-247 -173 -39 41 -50 91 -33 147 12 42 68 104 80 90 4 -4 17 -35 30 -68 24
-61 40 -89 40 -67 0 6 -11 41 -25 78 -14 36 -25 68 -25 70 0 2 21 4 46 4 30 0
59 -8 81 -21z"/>
<path d="M4043 993 c-19 -7 -16 -50 4 -57 24 -10 51 20 37 41 -12 19 -23 24
-41 16z m27 -28 c0 -8 -4 -15 -9 -15 -13 0 -22 16 -14 24 11 11 23 6 23 -9z"/>
<path d="M3849 894 c-17 -21 0 -49 31 -49 31 0 48 28 31 49 -8 9 -21 16 -31
16 -10 0 -23 -7 -31 -16z m46 -13 c7 -12 -12 -24 -25 -16 -11 7 -4 25 10 25 5
0 11 -4 15 -9z"/>
<path d="M4137 847 c-8 -21 8 -39 29 -35 27 5 25 42 -2 46 -12 2 -24 -3 -27
-11z m33 -13 c0 -8 -5 -12 -10 -9 -6 4 -8 11 -5 16 9 14 15 11 15 -7z"/>
<path d="M3994 725 c-7 -17 12 -45 31 -45 19 0 36 25 29 44 -8 20 -53 21 -60
1z m46 -16 c0 -5 -7 -9 -15 -9 -15 0 -20 12 -9 23 8 8 24 -1 24 -14z"/>
<path d="M4232 1079 c-34 -22 -36 -40 -6 -83 12 -18 14 -17 39 10 18 20 25 37
23 58 -4 38 -15 41 -56 15z m48 -19 c0 -23 -22 -26 -39 -6 -9 11 -9 15 1 19
26 11 38 7 38 -13z"/>
<path d="M5220 1094 c0 -5 7 -19 15 -30 8 -10 15 -14 15 -8 0 5 -7 19 -15 30
-8 10 -15 14 -15 8z"/>
<path d="M4158 1036 c-16 -5 -28 -13 -28 -18 0 -13 48 -40 67 -36 17 3 17 5 3
34 -14 27 -18 29 -42 20z"/>
<path d="M5185 1021 c-38 -16 -78 -32 -88 -35 -24 -8 -18 -41 8 -41 12 0 22 9
26 25 l7 25 1 -27 c1 -20 -5 -29 -26 -36 -16 -6 -22 -11 -14 -11 18 -1 177 75
186 89 7 11 -11 40 -24 40 -3 0 -37 -14 -76 -29z m65 -6 c0 -7 -70 -35 -84
-34 -6 0 7 9 29 20 41 19 55 23 55 14z m-130 -45 c0 -5 -4 -10 -10 -10 -5 0
-10 5 -10 10 0 6 5 10 10 10 6 0 10 -4 10 -10z"/>
<path d="M2921 963 c-46 -69 -52 -82 -47 -115 3 -20 2 -40 -4 -43 -14 -9 -12
-44 4 -60 7 -8 25 -17 38 -20 29 -8 53 -53 63 -118 7 -43 4 -51 -44 -130 -53
-88 -61 -116 -37 -137 33 -27 59 -8 112 83 28 49 56 93 61 98 7 7 18 -19 32
-78 25 -98 34 -113 66 -113 46 0 51 23 27 123 -13 51 -25 105 -28 122 -3 16
-25 51 -50 77 -49 53 -54 80 -26 138 13 26 24 35 42 35 21 0 25 -5 25 -30 0
-16 2 -32 5 -35 18 -18 61 -82 58 -86 -3 -2 -19 16 -37 41 -18 25 -40 45 -50
45 -9 0 -22 5 -29 12 -30 30 -9 -19 33 -78 38 -53 51 -84 80 -194 19 -72 35
-138 35 -146 0 -8 7 -14 15 -14 17 0 19 11 6 26 -4 5 -23 67 -41 137 -27 102
-42 140 -72 184 -22 30 -37 57 -35 59 2 2 21 -21 43 -51 22 -31 47 -55 57 -55
34 0 30 31 -12 93 -29 42 -33 51 -12 27 34 -40 191 -315 191 -336 0 -8 4 -14
8 -14 20 0 19 15 -2 49 -29 46 -116 206 -116 213 0 3 9 8 20 11 35 9 22 33
-47 90 -55 44 -76 70 -109 133 -26 48 -49 80 -60 83 -11 2 -32 14 -47 27 -45
38 -59 31 -116 -53z m95 -11 c-4 -3 -14 2 -24 12 -16 18 -16 18 6 6 13 -6 21
-14 18 -18z m84 -7 c15 -18 6 -61 -16 -69 -24 -9 -54 12 -54 37 0 43 44 63 70
32z m39 -85 c11 -24 11 -24 -3 -6 -9 11 -16 24 -16 30 0 12 5 7 19 -24z m-29
-11 c0 -6 -4 -7 -10 -4 -5 3 -10 11 -10 16 0 6 5 7 10 4 6 -3 10 -11 10 -16z
m-30 -24 c0 -5 -5 -3 -10 5 -5 8 -10 20 -10 25 0 6 5 3 10 -5 5 -8 10 -19 10
-25z m-36 -81 c21 -20 20 -43 -1 -66 -31 -34 -83 -12 -83 36 0 44 52 63 84 30z
m26 -104 c6 -11 9 -20 7 -20 -2 0 -12 9 -22 20 -10 11 -13 20 -7 20 6 0 16 -9
22 -20z m-45 -27 l28 -38 -31 29 c-18 17 -32 33 -32 38 0 15 7 9 35 -29z m115
-7 c28 -35 -11 -93 -47 -70 -36 22 -23 84 17 84 10 0 23 -7 30 -14z m9 -151
c7 -27 15 -59 18 -70 3 -11 2 -16 -3 -12 -5 5 -16 40 -25 78 -9 39 -13 67 -9
62 4 -4 13 -30 19 -58z"/>
<path d="M3044 936 c-10 -26 4 -48 28 -44 17 2 23 10 23 28 0 18 -6 26 -23 28
-13 2 -25 -3 -28 -12z m36 -15 c0 -6 -4 -13 -10 -16 -5 -3 -10 1 -10 9 0 9 5
16 10 16 6 0 10 -4 10 -9z"/>
<path d="M2982 738 c-18 -18 -14 -46 7 -58 38 -20 71 13 51 51 -12 21 -40 25
-58 7z m38 -22 c0 -8 -4 -17 -9 -21 -12 -7 -24 12 -16 25 9 15 25 12 25 -4z"/>
<path d="M3092 598 c-16 -16 -15 -33 2 -47 18 -15 46 -4 46 18 0 17 -18 41
-30 41 -3 0 -11 -5 -18 -12z m28 -23 c0 -8 -4 -15 -10 -15 -5 0 -10 7 -10 15
0 8 5 15 10 15 6 0 10 -7 10 -15z"/>
<path d="M5615 995 c-14 -13 -25 -36 -25 -50 0 -32 41 -75 73 -75 63 0 91 89
41 129 -35 27 -59 26 -89 -4z m87 -12 c10 -9 18 -26 18 -39 0 -57 -81 -73
-109 -23 -13 24 -13 29 2 53 20 30 61 35 89 9z"/>
<path d="M5320 809 c55 -160 70 -196 70 -173 0 19 -115 344 -122 344 -4 0 19
-77 52 -171z"/>
<path d="M3780 846 c0 -8 7 -17 16 -20 21 -8 26 -3 18 18 -8 20 -34 21 -34 2z"/>
<path d="M3104 806 c-8 -21 3 -36 27 -36 15 0 20 6 17 22 -4 27 -35 37 -44 14z
m31 -5 c3 -5 1 -12 -5 -16 -5 -3 -10 1 -10 9 0 18 6 21 15 7z"/>
<path d="M663 783 c9 -2 25 -2 35 0 9 3 1 5 -18 5 -19 0 -27 -2 -17 -5z"/>
<path d="M535 769 c-13 -21 -18 -129 -6 -129 15 0 14 -30 -3 -49 -17 -20 -28
-89 -15 -96 5 -4 9 -29 9 -56 0 -31 4 -48 10 -44 6 3 10 27 11 53 0 26 4 56 9
67 7 14 9 2 7 -40 l-2 -60 41 -3 41 -3 6 58 c4 32 9 97 13 146 5 61 11 87 20
87 18 0 22 -20 29 -145 9 -149 8 -147 58 -143 l42 3 -2 60 c-2 56 -1 57 7 20
5 -22 9 -55 9 -72 1 -18 6 -33 12 -33 8 0 10 16 5 50 -4 32 -3 50 4 50 17 0
12 90 -5 96 -17 7 -20 45 -4 61 16 16 -2 128 -21 128 -10 0 -14 -8 -12 -27 1
-16 -2 -28 -8 -28 -5 0 -10 11 -10 25 l0 25 -100 0 -100 0 0 -25 c0 -14 -4
-25 -10 -25 -5 0 -10 11 -10 24 0 28 -15 42 -25 25z m6 -106 c-9 -16 -10 -15
-11 7 0 14 4 43 8 65 l7 40 3 -47 c2 -26 -2 -56 -7 -65z m279 73 c0 -13 3 -38
6 -55 4 -19 2 -31 -4 -31 -6 0 -12 25 -14 55 -1 30 0 55 5 55 4 0 7 -11 7 -24z
m-255 -134 c-10 -81 -18 -55 -9 30 5 40 10 62 12 49 2 -14 1 -49 -3 -79z m238
20 c4 -44 2 -70 -4 -67 -5 4 -9 38 -9 77 0 89 5 85 13 -10z m-273 -83 c0 -22
-4 -38 -8 -35 -8 5 -4 76 4 76 2 0 4 -18 4 -41z m309 -6 c-1 -34 -2 -35 -9
-13 -11 36 -11 50 0 50 6 0 10 -17 9 -37z"/>
<path d="M3865 770 c3 -6 -6 -33 -21 -60 l-27 -50 -52 6 c-67 8 -116 -8 -154
-51 -61 -70 -62 -165 -3 -228 38 -41 74 -57 127 -57 83 0 139 43 169 128 17
49 -1 112 -44 157 l-31 32 25 43 24 43 16 -38 c9 -22 19 -49 22 -62 7 -27 24
-41 24 -20 0 16 -41 136 -53 155 -5 6 -13 12 -18 12 -6 0 -7 -5 -4 -10z m-71
-129 c3 -5 -10 -37 -29 -71 -19 -34 -35 -66 -35 -71 0 -5 36 -9 81 -9 l81 0
-6 -27 c-23 -96 -141 -146 -227 -97 -37 21 -79 92 -79 135 0 42 42 110 80 130
36 20 124 26 134 10z m65 -49 c11 -16 23 -40 26 -55 l7 -27 -66 0 c-36 0 -66
3 -66 6 0 17 55 104 66 104 7 0 22 -13 33 -28z"/>
<path d="M5500 650 c-168 -54 -417 -134 -553 -178 -136 -44 -250 -82 -253 -85
-3 -2 -2 -16 2 -31 l6 -26 559 0 559 0 0 210 c0 116 -3 210 -7 209 -5 0 -145
-45 -313 -99z"/>
<path d="M552 368 c3 -29 7 -33 35 -36 24 -2 34 2 43 18 18 34 5 50 -40 50
-40 0 -41 -1 -38 -32z"/>
<path d="M733 393 c-16 -6 -17 -35 -1 -51 29 -29 78 -7 78 35 0 19 -5 23 -32
22 -18 0 -39 -3 -45 -6z"/>
<path d="M2292 100 c0 -40 2 -47 7 -26 9 42 29 44 34 4 l5 -33 -2 35 c-1 24
-6 35 -16 35 -8 0 -18 9 -22 20 -3 11 -6 -4 -6 -35z"/>
<path d="M2893 100 c0 -30 1 -47 4 -37 5 18 5 18 25 0 21 -18 21 -18 9 5 -10
19 -10 27 1 40 10 13 8 13 -9 -1 -21 -19 -22 -19 -26 15 -2 20 -4 11 -4 -22z"/>
<path d="M3329 133 c-12 -15 -12 -16 4 -10 14 5 17 1 17 -27 0 -19 -6 -37 -12
-39 -7 -3 1 -5 17 -5 17 0 24 2 18 5 -8 3 -13 23 -13 49 0 47 -9 55 -31 27z"/>
<path d="M3416 126 c-30 -47 -9 -97 29 -66 21 18 19 41 -5 47 -16 4 -18 8 -9
19 7 8 10 17 7 20 -3 2 -13 -7 -22 -20z m29 -47 c0 -7 -8 -15 -17 -17 -18 -3
-25 18 -11 32 10 10 28 1 28 -15z"/>
<path d="M3489 133 c-12 -15 -12 -16 4 -10 14 5 17 1 17 -27 0 -19 -6 -37 -12
-39 -7 -3 1 -5 17 -5 17 0 24 2 18 5 -8 3 -13 23 -13 49 0 47 -9 55 -31 27z"/>
<path d="M3572 117 l-22 -32 25 -3 c15 -2 25 -10 26 -20 0 -15 1 -15 8 1 8 21
2 87 -8 87 -3 0 -16 -15 -29 -33z m28 -7 c0 -11 -7 -20 -15 -20 -13 0 -14 4
-5 20 6 11 13 20 15 20 3 0 5 -9 5 -20z"/>
<path d="M3656 126 c-30 -47 -9 -97 29 -66 21 18 19 41 -5 47 -16 4 -18 8 -9
19 7 8 10 17 7 20 -3 2 -13 -7 -22 -20z m29 -47 c0 -7 -8 -15 -17 -17 -18 -3
-25 18 -11 32 10 10 28 1 28 -15z"/>
<path d="M3727 143 c-13 -12 -7 -42 10 -52 15 -8 15 -11 3 -27 -10 -11 -10
-15 -2 -10 6 4 19 21 28 37 12 24 13 34 3 45 -12 15 -31 18 -42 7z m38 -23 c0
-8 -8 -16 -17 -18 -13 -2 -18 3 -18 18 0 15 5 20 18 18 9 -2 17 -10 17 -18z"/>
<path d="M3807 143 c-13 -12 -7 -42 10 -52 15 -8 15 -11 3 -27 -10 -11 -10
-15 -2 -10 6 4 19 21 28 37 12 24 13 34 3 45 -12 15 -31 18 -42 7z m38 -23 c0
-8 -8 -16 -17 -18 -13 -2 -18 3 -18 18 0 15 5 20 18 18 9 -2 17 -10 17 -18z"/>
<path d="M3896 126 c-30 -47 -9 -97 29 -66 21 18 19 41 -5 47 -16 4 -18 8 -9
19 7 8 10 17 7 20 -3 2 -13 -7 -22 -20z m29 -46 c0 -8 -8 -16 -17 -18 -13 -2
-18 3 -18 18 0 15 5 20 18 18 9 -2 17 -10 17 -18z"/>
<path d="M3982 143 l28 -4 -20 -39 c-28 -56 -24 -64 5 -10 31 58 31 60 -7 59
-31 -2 -31 -2 -6 -6z"/>
<path d="M4047 143 c-4 -3 -7 -11 -7 -17 0 -6 5 -5 12 2 16 16 28 15 28 -3 0
-8 -5 -15 -12 -15 -6 0 -4 -6 7 -13 10 -8 15 -19 11 -25 -10 -16 -33 -15 -39
1 -4 9 -6 9 -6 -1 -1 -18 27 -26 43 -13 14 12 15 58 2 79 -8 13 -29 16 -39 5z"/>
<path d="M2477 124 c-9 -10 9 -68 23 -72 12 -4 13 -2 3 9 -16 17 -17 46 -1 51
8 3 6 6 -4 10 -9 4 -18 5 -21 2z"/>
<path d="M1903 85 c10 -35 27 -48 27 -20 0 8 -4 15 -10 15 -5 0 -10 9 -10 20
0 11 -4 20 -9 20 -5 0 -4 -15 2 -35z"/>
<path d="M1936 111 c-5 -7 -4 -16 1 -20 5 -3 13 -15 17 -26 8 -18 10 -16 24
15 l15 35 10 -32 c10 -34 27 -45 27 -18 0 8 -4 15 -10 15 -5 0 -10 9 -10 21 0
29 -33 21 -40 -11 l-6 -25 -10 30 c-7 21 -13 25 -18 16z"/>
<path d="M2036 111 c-5 -7 -4 -16 1 -20 5 -3 13 -15 17 -26 8 -18 10 -16 24
15 l15 35 10 -32 c10 -34 27 -45 27 -18 0 8 -4 15 -10 15 -5 0 -10 9 -10 21 0
29 -33 21 -40 -11 l-6 -25 -10 30 c-7 21 -13 25 -18 16z"/>
<path d="M2135 110 c-4 -7 -3 -15 2 -19 5 -3 13 -15 17 -26 8 -18 10 -17 23
14 8 18 12 36 9 38 -3 3 -8 -8 -12 -23 l-7 -29 -12 29 c-8 20 -15 25 -20 16z"/>
<path d="M2234 108 c-4 -6 0 -16 9 -23 22 -16 21 -22 0 -28 -16 -4 -16 -5 -1
-6 26 -2 33 20 12 36 -16 12 -17 15 -4 23 9 6 10 10 3 10 -6 0 -15 -5 -19 -12z"/>
<path d="M2364 91 c0 -21 7 -36 16 -38 10 -3 11 -2 3 4 -6 4 -13 22 -16 38 -4
27 -5 27 -3 -4z"/>
<path d="M2403 85 c0 -22 2 -30 4 -17 2 12 2 30 0 40 -3 9 -5 -1 -4 -23z"/>
<path d="M2429 88 c4 -17 13 -34 21 -36 12 -4 13 -2 3 9 -7 7 -13 21 -13 30 0
10 6 20 13 22 6 3 2 6 -9 6 -19 1 -21 -3 -15 -31z"/>
<path d="M2534 106 c-11 -28 0 -51 26 -53 22 -1 22 -1 3 4 -29 6 -30 23 -2 23
14 0 19 5 17 17 -4 23 -36 29 -44 9z m36 -6 c0 -5 -7 -10 -15 -10 -8 0 -15 5
-15 10 0 6 7 10 15 10 8 0 15 -4 15 -10z"/>
<path d="M2601 81 c1 -28 3 -30 6 -11 3 14 9 30 14 36 5 7 3 11 -6 11 -11 0
-15 -11 -14 -36z"/>
<path d="M2654 108 c-4 -6 0 -16 9 -23 22 -16 21 -22 0 -28 -16 -4 -16 -5 -1
-6 26 -2 33 20 12 36 -16 12 -17 15 -4 23 9 6 10 10 3 10 -6 0 -15 -5 -19 -12z"/>
<path d="M2709 88 c4 -17 13 -34 21 -36 12 -4 13 -2 3 9 -7 7 -13 21 -13 30 0
10 6 20 13 22 6 3 2 6 -9 6 -19 1 -21 -3 -15 -31z"/>
<path d="M2767 114 c-13 -13 -7 -55 9 -61 24 -9 51 23 38 45 -12 19 -36 27
-47 16z m36 -16 c6 -19 -3 -38 -19 -38 -8 0 -14 10 -14 25 0 26 25 35 33 13z"/>
<path d="M2834 106 c-9 -23 0 -51 16 -52 9 0 10 1 3 3 -20 7 -16 51 5 56 16 4
16 5 -1 6 -10 0 -20 -5 -23 -13z"/>
<path d="M2994 106 c-9 -23 0 -51 16 -52 9 0 10 1 3 3 -20 7 -16 51 5 56 16 4
16 5 -1 6 -10 0 -20 -5 -23 -13z"/>
<path d="M3057 114 c-13 -13 -7 -55 9 -61 24 -9 51 23 38 45 -12 19 -36 27
-47 16z m38 -29 c0 -11 -8 -21 -17 -23 -14 -3 -18 3 -18 23 0 20 4 26 18 23 9
-2 17 -12 17 -23z"/>
<path d="M3123 85 c0 -22 2 -30 4 -17 2 12 2 30 0 40 -3 9 -5 -1 -4 -23z"/>
<path d="M3147 112 c6 -4 13 -21 16 -37 l4 -30 2 33 c1 41 23 39 33 -4 6 -27
6 -27 5 6 -2 32 -4 35 -36 37 -19 1 -30 -2 -24 -5z"/>
</g>
</svg>
